<?xml version="1.0" encoding="UTF-8"?>
<svg xmlns="http://www.w3.org/2000/svg" viewBox="0 0 256 256" width="256" height="256">
  <defs>
    <linearGradient id="bg" x1="0%" y1="0%" x2="100%" y2="100%">
      <stop offset="0%" stop-color="#fafafa"/>
      <stop offset="100%" stop-color="#f1f5f9"/>
    </linearGradient>
    <linearGradient id="gold" x1="0%" y1="0%" x2="100%" y2="100%">
      <stop offset="0%" stop-color="#fcd34d"/>
      <stop offset="50%" stop-color="#f59e0b"/>
      <stop offset="100%" stop-color="#fcd34d"/>
    </linearGradient>
  </defs>
  <rect width="256" height="256" fill="url(#bg)"/>
<circle cx="110.50399999999999" cy="110.50399999999999" r="3" fill="#fff" opacity="0.35"/>
<circle cx="210.944" cy="43.760000000000005" r="4" fill="#fff" opacity="0.35"/>
<circle cx="159.32" cy="193.01600000000002" r="5" fill="#fff" opacity="0.35"/>
<circle cx="43.760000000000005" cy="126.27199999999999" r="3" fill="#fff" opacity="0.35"/>
<circle cx="144.2" cy="59.528" r="4" fill="#fff" opacity="0.35"/>
  <rect x="178" y="188" width="28" height="22" rx="4" fill="#fff" stroke="#94a3b8"/><path d="M206 194 Q218 194 218 204 Q218 214 206 214" fill="none" stroke="#94a3b8" stroke-width="2"/><ellipse cx="192" cy="196" rx="10" ry="4" fill="#8b5a2b" opacity="0.5"/>
  
    <g transform="translate(120.968,127.328) rotate(0) scale(1.0722)">
      <ellipse cx="0" cy="18" rx="36" ry="30" fill="#d4b896" stroke="#92400e" stroke-width="2"/>
      <ellipse cx="-50" cy="-6" rx="20" ry="46" fill="#c4a574" stroke="#92400e" stroke-width="2" transform="rotate(-17.944)"/>
      <ellipse cx="50" cy="-6" rx="20" ry="46" fill="#c4a574" stroke="#92400e" stroke-width="2" transform="rotate(17.944)"/>
      <ellipse cx="52" cy="-18" rx="12" ry="8" fill="#f472b6" opacity="0.9"/><ellipse cx="44" cy="-18" rx="8" ry="6" fill="#fbcfe8"/><ellipse cx="60" cy="-18" rx="8" ry="6" fill="#fbcfe8"/>
      <ellipse cx="-14" cy="-2" rx="7" ry="10" fill="#78350f"/><ellipse cx="14" cy="-2" rx="7" ry="10" fill="#78350f"/>
      <ellipse cx="-20" cy="10" rx="8" ry="5" fill="#fda4af" opacity="0.65"/>
      <ellipse cx="20" cy="10" rx="8" ry="5" fill="#fda4af" opacity="0.65"/>
      <path d="M-5 14 Q0 19 5 14" fill="none" stroke="#78350f" stroke-width="2" stroke-linecap="round"/>
      <circle cx="0" cy="40" r="9" fill="#d4b896" stroke="#92400e" stroke-width="1.5"/>
    </g>
  <rect x="10" y="10" width="236" height="236" rx="12" fill="none" stroke="#cbd5e1" stroke-width="2"/>
  <text x="128" y="246" text-anchor="middle" font-family="Segoe UI, sans-serif" font-size="10" fill="#64748b" opacity="0.9">肉桂狗·摩卡·下午茶</text>
</svg>