<?xml version="1.0" encoding="UTF-8"?>
<svg xmlns="http://www.w3.org/2000/svg" viewBox="0 0 256 256" width="256" height="256">
  <defs>
    <linearGradient id="bg" x1="0%" y1="0%" x2="100%" y2="100%">
      <stop offset="0%" stop-color="#e0f2fe"/>
      <stop offset="100%" stop-color="#bae6fd"/>
    </linearGradient>
    <linearGradient id="gold" x1="0%" y1="0%" x2="100%" y2="100%">
      <stop offset="0%" stop-color="#fcd34d"/>
      <stop offset="50%" stop-color="#f59e0b"/>
      <stop offset="100%" stop-color="#fcd34d"/>
    </linearGradient>
  </defs>
  <rect width="256" height="256" fill="url(#bg)"/>
<circle cx="223.904" cy="223.904" r="3" fill="#fff" opacity="0.35"/>
<circle cx="108.344" cy="157.16" r="4" fill="#fff" opacity="0.35"/>
<circle cx="56.720000000000006" cy="90.416" r="5" fill="#fff" opacity="0.35"/>
<circle cx="157.16" cy="23.672" r="3" fill="#fff" opacity="0.35"/>
<circle cx="41.6" cy="172.928" r="4" fill="#fff" opacity="0.35"/>
  <path d="M40 200 Q52 180 64 200 Q52 215 40 200" fill="#fda4af"/>
  <g transform="translate(134.64,128) rotate(0) scale(0.97648)">
      <ellipse cx="0" cy="18" rx="32" ry="28" fill="#fef08a" stroke="#eab308" stroke-width="2"/>
      <ellipse cx="0" cy="-22" rx="24" ry="20" fill="#fef08a" stroke="#eab308" stroke-width="2"/>
      <ellipse cx="0" cy="-8" rx="16" ry="10" fill="#f97316"/>
      <ellipse cx="-14" cy="-2" rx="7" ry="10" fill="#1e293b"/><ellipse cx="14" cy="-2" rx="7" ry="10" fill="#1e293b"/>
    </g>
  <rect x="8" y="8" width="240" height="240" rx="14" fill="none" stroke="#60a5fa" stroke-width="3" opacity="0.7"/>
  <text x="128" y="246" text-anchor="middle" font-family="Segoe UI, sans-serif" font-size="10" fill="#64748b" opacity="0.9">豆豆鴨·黃鴨游泳圈</text>
</svg>