<?xml version="1.0" encoding="UTF-8"?>
<svg xmlns="http://www.w3.org/2000/svg" viewBox="0 0 256 256" width="256" height="256">
  <defs>
    <linearGradient id="bg" x1="0%" y1="0%" x2="100%" y2="100%">
      <stop offset="0%" stop-color="#e0f2fe"/>
      <stop offset="100%" stop-color="#bae6fd"/>
    </linearGradient>
    <linearGradient id="gold" x1="0%" y1="0%" x2="100%" y2="100%">
      <stop offset="0%" stop-color="#fcd34d"/>
      <stop offset="50%" stop-color="#f59e0b"/>
      <stop offset="100%" stop-color="#fcd34d"/>
    </linearGradient>
  </defs>
  <rect width="256" height="256" fill="url(#bg)"/>
<circle cx="36.632000000000005" cy="36.632000000000005" r="3" fill="#fff" opacity="0.35"/>
<circle cx="137.072" cy="185.888" r="4" fill="#fff" opacity="0.35"/>
<circle cx="85.448" cy="119.144" r="5" fill="#fff" opacity="0.35"/>
<circle cx="185.888" cy="52.4" r="3" fill="#fff" opacity="0.35"/>
<circle cx="70.328" cy="201.656" r="4" fill="#fff" opacity="0.35"/>
  <circle cx="196" cy="48" r="18" fill="#fbbf24" opacity="0.85"/><g stroke="#fbbf24" stroke-width="2"><line x1="196" y1="22" x2="196" y2="14"/><line x1="196" y1="74" x2="196" y2="82"/><line x1="170" y1="48" x2="162" y2="48"/><line x1="222" y1="48" x2="230" y2="48"/></g>
  
    <g transform="translate(127.928,126.4) rotate(0) scale(1.067)">
      <ellipse cx="0" cy="18" rx="36" ry="30" fill="#ffffff" stroke="#94a3b8" stroke-width="2"/>
      <ellipse cx="-50" cy="-6" rx="20" ry="46" fill="#ffffff" stroke="#94a3b8" stroke-width="2" transform="rotate(-26.152)"/>
      <ellipse cx="50" cy="-6" rx="20" ry="46" fill="#ffffff" stroke="#94a3b8" stroke-width="2" transform="rotate(26.152)"/>
      
      <ellipse cx="-14" cy="-2" rx="7" ry="10" fill="#60a5fa"/><ellipse cx="14" cy="-2" rx="7" ry="10" fill="#60a5fa"/>
      <ellipse cx="-20" cy="10" rx="8" ry="5" fill="#fda4af" opacity="0.65"/>
      <ellipse cx="20" cy="10" rx="8" ry="5" fill="#fda4af" opacity="0.65"/>
      <path d="M-5 14 Q0 19 5 14" fill="none" stroke="#60a5fa" stroke-width="2" stroke-linecap="round"/>
      <circle cx="0" cy="40" r="9" fill="#ffffff" stroke="#94a3b8" stroke-width="1.5"/>
    </g>
  <rect x="8" y="8" width="240" height="240" rx="14" fill="none" stroke="#60a5fa" stroke-width="3" opacity="0.7"/>
  <text x="128" y="246" text-anchor="middle" font-family="Segoe UI, sans-serif" font-size="10" fill="#64748b" opacity="0.9">肉桂狗·晴天版</text>
</svg>