<?xml version="1.0" encoding="UTF-8"?>
<svg xmlns="http://www.w3.org/2000/svg" viewBox="0 0 256 256" width="256" height="256">
  <defs>
    <linearGradient id="bg" x1="0%" y1="0%" x2="100%" y2="100%">
      <stop offset="0%" stop-color="#ffedd5"/>
      <stop offset="100%" stop-color="#fed7aa"/>
    </linearGradient>
    <linearGradient id="gold" x1="0%" y1="0%" x2="100%" y2="100%">
      <stop offset="0%" stop-color="#fcd34d"/>
      <stop offset="50%" stop-color="#f59e0b"/>
      <stop offset="100%" stop-color="#fcd34d"/>
    </linearGradient>
  </defs>
  <rect width="256" height="256" fill="url(#bg)"/>
<circle cx="56.720000000000006" cy="56.720000000000006" r="3" fill="#fff" opacity="0.35"/>
<circle cx="157.16" cy="205.976" r="4" fill="#fff" opacity="0.35"/>
<circle cx="41.6" cy="139.23200000000003" r="5" fill="#fff" opacity="0.35"/>
<circle cx="205.976" cy="72.488" r="3" fill="#fff" opacity="0.35"/>
<circle cx="90.416" cy="221.744" r="4" fill="#fff" opacity="0.35"/>
  
  <g transform="translate(131.32,117.884) rotate(0) scale(1.04524)">
      <ellipse cx="0" cy="14" rx="30" ry="26" fill="#92400e" stroke="#713f12" stroke-width="2"/>
      <rect x="-18" y="28" width="36" height="14" rx="4" fill="#78350f"/>
      <ellipse cx="-10" cy="-20" rx="8" ry="10" fill="#92400e"/><ellipse cx="10" cy="-20" rx="8" ry="10" fill="#92400e"/>
      <ellipse cx="-14" cy="-2" rx="7" ry="10" fill="#fff"/><ellipse cx="14" cy="-2" rx="7" ry="10" fill="#fff"/>
      <rect x="-6" y="32" width="4" height="8" fill="#fff"/><rect x="2" y="32" width="4" height="8" fill="#fff"/>
    </g>
  <rect x="8" y="8" width="240" height="240" rx="14" fill="none" stroke="#60a5fa" stroke-width="3" opacity="0.7"/>
  <text x="128" y="246" text-anchor="middle" font-family="Segoe UI, sans-serif" font-size="10" fill="#64748b" opacity="0.9">鋼牙妹·牙套閃耀</text>
</svg>