<?xml version="1.0" encoding="UTF-8"?>
<svg xmlns="http://www.w3.org/2000/svg" viewBox="0 0 256 256" width="256" height="256">
  <defs>
    <linearGradient id="bg" x1="0%" y1="0%" x2="100%" y2="100%">
      <stop offset="0%" stop-color="#fbcfe8"/>
      <stop offset="100%" stop-color="#fdf2f8"/>
    </linearGradient>
    <linearGradient id="gold" x1="0%" y1="0%" x2="100%" y2="100%">
      <stop offset="0%" stop-color="#fcd34d"/>
      <stop offset="50%" stop-color="#f59e0b"/>
      <stop offset="100%" stop-color="#fcd34d"/>
    </linearGradient>
  </defs>
  <rect width="256" height="256" rx="20" fill="url(#bg)"/>
  <text x="43.328" y="217.856" font-size="14" fill="#f472b6" opacity="0.39499999999999996" transform="rotate(251.99999999999997 43.328 217.856)">★</text>
<circle cx="207.704" cy="166.232" r="5" fill="#fff" opacity="0.7374499999999999"/>
<text x="92.144" y="50.672" font-size="16" opacity="0.4967" transform="rotate(226.8 92.144 50.672)">♡</text>
<text x="192.584" y="151.112" font-size="26" fill="#f472b6" opacity="0.38915" transform="rotate(140.76 192.584 151.112)">★</text>
<circle cx="140.96" cy="99.488" r="8" fill="#fff" opacity="0.5984"/>
<text x="25.4" y="199.928" font-size="16" opacity="0.35764999999999997" transform="rotate(115.56 25.4 199.928)">♡</text>
<text x="125.84" y="148.304" font-size="22" fill="#f472b6" opacity="0.7001" transform="rotate(29.52 125.84 148.304)">★</text>
<circle cx="74.21600000000001" cy="32.744" r="6" fill="#fff" opacity="0.45935"/>
<text x="128" y="238" text-anchor="middle" font-family="Segoe UI, sans-serif" font-size="11" fill="#64748b" opacity="0.85">愛心</text>
  
    <g transform="translate(128,124.08) scale(0.9249999999999999)">
      <ellipse cx="0" cy="18" rx="38" ry="32" fill="#fff" stroke="#94a3b8" stroke-width="2"/>
      <ellipse cx="-52" cy="-8" rx="22" ry="48" fill="#fff" stroke="#94a3b8" stroke-width="2" transform="rotate(-26)"/>
      <ellipse cx="52" cy="-8" rx="22" ry="48" fill="#fff" stroke="#94a3b8" stroke-width="2" transform="rotate(26)"/>
      <ellipse cx="-14" cy="-2" rx="7" ry="10" fill="#60a5fa"/>
      <ellipse cx="14" cy="-2" rx="7" ry="10" fill="#60a5fa"/>
      <ellipse cx="-22" cy="10" rx="9" ry="5" fill="#fda4af" opacity="0.7"/>
      <ellipse cx="22" cy="10" rx="9" ry="5" fill="#fda4af" opacity="0.7"/>
      <path d="M-6 14 Q0 20 6 14" fill="none" stroke="#60a5fa" stroke-width="2" stroke-linecap="round"/>
      <circle cx="0" cy="42" r="10" fill="#fff" stroke="#94a3b8" stroke-width="1.5"/>
    </g>
  <rect x="8" y="8" width="240" height="240" rx="14" fill="none" stroke="#60a5fa" stroke-width="3" opacity="0.7"/>
</svg>