<?xml version="1.0" encoding="UTF-8"?>
<svg xmlns="http://www.w3.org/2000/svg" viewBox="0 0 256 256" width="256" height="256">
  <defs>
    <linearGradient id="bg" x1="0%" y1="0%" x2="100%" y2="100%">
      <stop offset="0%" stop-color="#e0f2fe"/>
      <stop offset="100%" stop-color="#7dd3fc"/>
    </linearGradient>
    <linearGradient id="gold" x1="0%" y1="0%" x2="100%" y2="100%">
      <stop offset="0%" stop-color="#fcd34d"/>
      <stop offset="50%" stop-color="#f59e0b"/>
      <stop offset="100%" stop-color="#fcd34d"/>
    </linearGradient>
  </defs>
  <rect width="256" height="256" fill="url(#bg)"/>
<text x="186.34" y="181.6" font-size="10" fill="#fff" opacity="0.2">✦</text>
<text x="131.37" y="226.8" font-size="12" fill="#fff" opacity="0.2">✦</text>
<text x="238.32" y="72" font-size="14" fill="#fff" opacity="0.2">✦</text>
<text x="115.27" y="117.2" font-size="16" fill="#fff" opacity="0.2">✦</text>
<text x="60.3" y="103.2" font-size="10" fill="#fff" opacity="0.2">✦</text>
<text x="167.25" y="148.39999999999998" font-size="12" fill="#fff" opacity="0.2">✦</text>
  <rect x="12" y="10" width="232" height="28" rx="14" fill="#fde047" opacity="0.88"/>
    <text x="128" y="29" text-anchor="middle" font-family="Segoe UI,sans-serif" font-size="11" font-weight="700" fill="#fff">小刺豚</text>
  <path d="M40 200 Q52 180 64 200 Q52 215 40 200" fill="#fda4af"/>
<circle cx="130.56" cy="68.32" r="5" fill="#fda4af" opacity="0.65"/>
  <g transform="translate(133.8,115.588) rotate(0) scale(0.92932)">
      <circle cx="0" cy="10" r="36" fill="#fef08a" stroke="#eab308" stroke-width="2"/>
      <line x1="0" y1="-26" x2="0" y2="-50" stroke="#eab308" stroke-width="2"/>
      <ellipse cx="-12" cy="6" rx="6" ry="8" fill="#1e293b"/><ellipse cx="12" cy="6" rx="6" ry="8" fill="#1e293b"/>
      <path d="M-8 20 Q0 28 8 20" fill="none" stroke="#ca8a04" stroke-width="2"/>
    </g>

  <rect x="10" y="10" width="236" height="236" rx="12" fill="none" stroke="#cbd5e1" stroke-width="2"/>
  <text x="128" y="246" text-anchor="middle" font-family="Segoe UI, sans-serif" font-size="9" fill="#64748b" opacity="0.95">小刺豚·河豚海洋</text>
  <text x="244" y="248" text-anchor="end" font-family="monospace" font-size="7" fill="#94a3b8" opacity="0.5">#086</text>
</svg>