<?xml version="1.0" encoding="UTF-8"?>
<svg xmlns="http://www.w3.org/2000/svg" viewBox="0 0 256 256" width="256" height="256">
  <defs>
    <linearGradient id="bg" x1="0%" y1="0%" x2="100%" y2="100%">
      <stop offset="0%" stop-color="hsl(239, 55%, 94%)"/>
      <stop offset="100%" stop-color="hsl(279, 45%, 82%)"/>
    </linearGradient>
    <linearGradient id="gold" x1="0%" y1="0%" x2="100%" y2="100%">
      <stop offset="0%" stop-color="#fcd34d"/>
      <stop offset="50%" stop-color="#f59e0b"/>
      <stop offset="100%" stop-color="#fcd34d"/>
    </linearGradient>
  </defs>
  <rect width="256" height="256" fill="url(#bg)"/>
<ellipse cx="128" cy="220" rx="86" ry="24" fill="#fff" opacity="0.08"/>
  <rect x="12" y="10" width="232" height="28" rx="14" fill="#f9a8d4" opacity="0.88"/>
    <text x="128" y="29" text-anchor="middle" font-family="Segoe UI,sans-serif" font-size="11" font-weight="700" fill="#fff">邦邦兔</text>
  <rect x="108" y="200" width="40" height="28" rx="4" fill="#60a5fa"/><rect x="108" y="192" width="40" height="12" fill="#f472b6"/>
  <g transform="translate(120.48,116.848) rotate(0) scale(0.99736)">
      <ellipse cx="0" cy="14" rx="28" ry="26" fill="#fff" stroke="#f9a8d4" stroke-width="2"/>
      <ellipse cx="-10" cy="-48" rx="10" ry="36" fill="#fff" stroke="#f9a8d4" stroke-width="2"/>
      <ellipse cx="14" cy="-48" rx="10" ry="36" fill="#fff" stroke="#f9a8d4" stroke-width="2"/>
      <ellipse cx="0" cy="-52" rx="14" ry="8" fill="#f472b6"/>
      <ellipse cx="-14" cy="-2" rx="7" ry="10" fill="#1e293b"/><ellipse cx="14" cy="-2" rx="7" ry="10" fill="#1e293b"/>
      <ellipse cx="-20" cy="10" rx="8" ry="5" fill="#fda4af" opacity="0.65"/><ellipse cx="20" cy="10" rx="8" ry="5" fill="#fda4af" opacity="0.65"/>
    </g>
<g transform="translate(-4,-6)"><ellipse cx="108" cy="88" rx="10" ry="7" fill="#f472b6"/><ellipse cx="148" cy="88" rx="10" ry="7" fill="#f472b6"/><circle cx="128" cy="88" r="5" fill="#ec4899"/></g>
  <rect x="8" y="8" width="240" height="240" rx="14" fill="none" stroke="#60a5fa" stroke-width="3" opacity="0.7"/>
  <text x="128" y="246" text-anchor="middle" font-family="Segoe UI, sans-serif" font-size="9" fill="#64748b" opacity="0.95">邦邦兔·禮物緞帶</text>
  <text x="244" y="248" text-anchor="end" font-family="monospace" font-size="7" fill="#94a3b8" opacity="0.5">#036</text>
</svg>